<?xml version="1.0" encoding="UTF-8"?>
<svg xmlns="http://www.w3.org/2000/svg" xmlns:xlink="http://www.w3.org/1999/xlink" viewBox="0 0 214.29 155.23">
  <defs>
    <style>
      .cls-1, .cls-2 {
        font-size: 39.62px;
      }

      .cls-3 {
        stroke-width: .75px;
      }

      .cls-3, .cls-4, .cls-5, .cls-6, .cls-7, .cls-8, .cls-9, .cls-10, .cls-11 {
        fill: none;
      }

      .cls-3, .cls-4, .cls-5, .cls-6, .cls-7, .cls-8, .cls-10 {
        stroke-linecap: round;
        stroke-linejoin: round;
      }

      .cls-3, .cls-4, .cls-5, .cls-7, .cls-8, .cls-10 {
        stroke: #677559;
      }

      .cls-4 {
        stroke-width: .64px;
      }

      .cls-12 {
        letter-spacing: -.05em;
      }

      .cls-13 {
        fill: #f2c7bd;
      }

      .cls-14 {
        clip-path: url(#clippath-2);
      }

      .cls-15 {
        fill: #eaa698;
      }

      .cls-16 {
        isolation: isolate;
      }

      .cls-17 {
        clip-path: url(#clippath-1);
      }

      .cls-18 {
        clip-path: url(#clippath-4);
      }

      .cls-5 {
        stroke-width: .83px;
      }

      .cls-19 {
        letter-spacing: 0em;
      }

      .cls-6 {
        stroke: #eaa698;
        stroke-width: 2.69px;
      }

      .cls-20 {
        fill: #fff;
        filter: url(#drop-shadow-1);
      }

      .cls-7 {
        stroke-width: 1.35px;
      }

      .cls-8 {
        stroke-width: 1.76px;
      }

      .cls-21 {
        clip-path: url(#clippath);
      }

      .cls-22 {
        clip-path: url(#clippath-3);
      }

      .cls-2, .cls-23 {
        fill: #225959;
        font-family: BalsamiqSans-Regular, 'BalsamiqSans Regular';
      }

      .cls-24 {
        fill: #a6904e;
      }

      .cls-10 {
        stroke-width: .98px;
      }

      .cls-11 {
        mix-blend-mode: screen;
        stroke: #f2c7bd;
        stroke-miterlimit: 10;
        stroke-width: .54px;
      }

      .cls-25 {
        font-size: 28px;
      }
    </style>
    <filter id="drop-shadow-1" filterUnits="userSpaceOnUse">
      <feOffset dx="3" dy="3"/>
      <feGaussianBlur result="blur" stdDeviation="0"/>
      <feFlood flood-color="#d0e8cf" flood-opacity=".35"/>
      <feComposite in2="blur" operator="in"/>
      <feComposite in="SourceGraphic"/>
    </filter>
    <clipPath id="clippath">
      <path class="cls-9" d="M129.99,68.93c6.4,3.68,14.6,4.01,21.28,.86,7.83-3.7,12.9-11.45,16.69-19.24-3.31,1.57-8.04,1.37-11.7,1.16-3-.17-5.96-.96-8.96-.74-2.04,.14-4.02,.75-5.88,1.59-6.01,2.7-10.53,10.02-11.43,16.38Z"/>
    </clipPath>
    <clipPath id="clippath-1">
      <path class="cls-9" d="M41.73,36.3c-1.46-3.18-4.55-5.57-8-6.18-4.05-.72-8.14,.89-11.74,2.86,1.71,.3,3.49,1.68,4.85,2.77,1.11,.89,2.05,2.01,3.26,2.75,.83,.5,1.76,.81,2.71,1,3.07,.61,6.83-.99,8.92-3.2Z"/>
    </clipPath>
    <clipPath id="clippath-2">
      <path class="cls-9" d="M28.21,101.51c-3.1-1.63-7-1.65-10.11-.04-3.65,1.89-5.92,5.66-7.58,9.42,1.54-.8,3.79-.79,5.53-.75,1.42,.03,2.84,.35,4.26,.2,.96-.1,1.89-.43,2.76-.86,2.8-1.39,4.82-4.94,5.13-7.97Z"/>
    </clipPath>
    <clipPath id="clippath-3">
      <path class="cls-9" d="M34.28,67.29c-1.41,3.21-4.45,5.64-7.89,6.32-4.03,.79-8.15-.75-11.79-2.66,1.71-.33,3.46-1.74,4.8-2.85,1.1-.91,2.01-2.04,3.21-2.8,.82-.52,1.75-.84,2.69-1.05,3.06-.66,6.85,.87,8.98,3.04Z"/>
    </clipPath>
    <clipPath id="clippath-4">
      <path class="cls-9" d="M101.46,33.52c4.12,.1,8.23-1.92,10.66-5.25,2.85-3.9,3.27-9.05,3.06-13.88-1.2,1.65-3.58,2.81-5.43,3.68-1.51,.71-3.18,1.12-4.59,2.02-.96,.61-1.77,1.44-2.46,2.34-2.23,2.92-2.49,7.72-1.24,11.07Z"/>
    </clipPath>
  </defs>
  <g class="cls-16">
    <g id="Capa_2" data-name="Capa 2">
      <g id="OBJECTS">
        <g>
          <path class="cls-20" d="M18.03,28.65L.9,107.2c-5.03,23.06,11.73,45.03,34.35,45.03H189.44c12.07,0,21.85-10.23,21.85-22.84v-59.04c0-15.77-9.59-29.78-23.87-34.87L116.48,10.2c-2.01-.71-4.07-1.24-6.16-1.57L57.58,.41C39.36-2.44,22.13,9.87,18.03,28.65Z"/>
          <g>
            <g>
              <text class="cls-23" transform="translate(63.86 76.22)"><tspan class="cls-1"><tspan x="0" y="0">NO</tspan></tspan><tspan class="cls-25"><tspan x="0" y="27.43">PLASTIC</tspan></tspan></text>
              <text class="cls-2" transform="translate(63.86 140.42)"><tspan x="0" y="0">ST</tspan><tspan class="cls-19" x="39.22" y="0">R</tspan><tspan class="cls-12" x="60.73" y="0">A</tspan><tspan x="82.87" y="0">W</tspan></text>
            </g>
            <g>
              <path class="cls-13" d="M36.88,140.78l-11.15-1.89c3.92-23.16,13.54-69.93,17.16-87.53,2.24-10.86,4.41-20.62,8.41-30.06,3.12-7.38,11.26-11.19,18.93-8.88l18.85,5.7-3.27,10.82-18.85-5.7c-2.13-.64-4.38,.41-5.24,2.46-3.59,8.48-5.63,17.67-7.74,27.93-3.61,17.55-13.21,64.18-17.09,87.14Z"/>
              <g>
                <path class="cls-11" d="M28.06,139.32c6.94-35.77,14.95-78.21,24.02-114.51,.05-.22,.12-.45,.21-.71,2.45-7.53,10.68-11.51,18.18-8.98,7.19,2.43,15.48,5.22,17.93,6.06"/>
                <path class="cls-11" d="M31.09,139.42c6.26-32.28,15.13-78.99,23.32-111.74,.05-.2,.11-.41,.19-.64,2.21-6.79,9.64-10.38,16.41-8.1,6.49,2.19,13.97,4.71,16.18,5.46"/>
                <path class="cls-11" d="M34.54,140.72c5.56-28.66,15.06-81.78,22.34-110.86,.04-.17,.1-.36,.16-.57,1.96-6.03,8.56-9.22,14.57-7.19,5.76,1.94,12.4,4.18,14.36,4.85"/>
              </g>
              <g>
                <path class="cls-6" d="M66.76,11.08c-.06,5.21-.08,7.86-.14,13.06"/>
                <path class="cls-6" d="M56.24,13.55c2.68,4.46,4.05,6.73,6.73,11.2"/>
                <path class="cls-6" d="M48.83,21.56c4.45,2.7,6.71,4.08,11.16,6.78"/>
              </g>
              <path class="cls-15" d="M89.08,18.12s-4.8,4.09-3.27,10.82c0,0,5.32-3.47,3.27-10.82Z"/>
              <path class="cls-15" d="M25.73,138.9s4.93,4.92,11.15,1.89c0,0-4.82-3.5-11.15-1.89Z"/>
            </g>
            <g>
              <g>
                <path class="cls-24" d="M129.99,68.93c6.4,3.68,14.6,4.01,21.28,.86,7.83-3.7,12.9-11.45,16.69-19.24-3.31,1.57-8.04,1.37-11.7,1.16-3-.17-5.96-.96-8.96-.74-2.04,.14-4.02,.75-5.88,1.59-6.01,2.7-10.53,10.02-11.43,16.38Z"/>
                <g class="cls-21">
                  <g>
                    <path class="cls-8" d="M168.58,49.96c-15.29,12.29-29.04,16.51-39.53,19"/>
                    <path class="cls-7" d="M139.45,66.14c2.06-4.68,2.85-9.91,2.26-14.98"/>
                    <path class="cls-7" d="M152.88,60.54c1.04-1.48,1.61-3.25,1.84-5.05,.23-1.79,.14-3.61-.02-5.41"/>
                    <path class="cls-7" d="M147.28,63.19c3.35,2.37,6.25,5.37,8.5,8.8"/>
                    <path class="cls-7" d="M134.88,67.83c2.41,1.4,4.21,3.81,4.86,6.51"/>
                  </g>
                </g>
              </g>
              <g>
                <path class="cls-24" d="M41.73,36.3c-1.46-3.18-4.55-5.57-8-6.18-4.05-.72-8.14,.89-11.74,2.86,1.71,.3,3.49,1.68,4.85,2.77,1.11,.89,2.05,2.01,3.26,2.75,.83,.5,1.76,.81,2.71,1,3.07,.61,6.83-.99,8.92-3.2Z"/>
                <g class="cls-17">
                  <g>
                    <path class="cls-5" d="M21.58,33.04c9.3-.56,15.77,1.59,20.52,3.51"/>
                    <path class="cls-4" d="M37.3,34.78c-2.08,1.24-3.83,3.05-4.99,5.18"/>
                    <path class="cls-4" d="M30.56,33.26c-.81,.28-1.52,.82-2.1,1.45-.58,.63-1.05,1.36-1.48,2.1"/>
                    <path class="cls-4" d="M33.46,33.77c-.65-1.84-.94-3.79-.87-5.74"/>
                    <path class="cls-4" d="M39.53,35.39c-.55-1.2-.58-2.63-.09-3.86"/>
                  </g>
                </g>
              </g>
              <g>
                <path class="cls-24" d="M28.21,101.51c-3.1-1.63-7-1.65-10.11-.04-3.65,1.89-5.92,5.66-7.58,9.42,1.54-.8,3.79-.79,5.53-.75,1.42,.03,2.84,.35,4.26,.2,.96-.1,1.89-.43,2.76-.86,2.8-1.39,4.82-4.94,5.13-7.97Z"/>
                <g class="cls-14">
                  <g>
                    <path class="cls-5" d="M10.23,111.18c7.04-6.1,13.48-8.34,18.42-9.7"/>
                    <path class="cls-4" d="M23.77,102.99c-.9,2.25-1.18,4.75-.81,7.15"/>
                    <path class="cls-4" d="M17.5,105.89c-.47,.72-.71,1.57-.78,2.43-.08,.85,0,1.72,.1,2.57"/>
                    <path class="cls-4" d="M20.11,104.53c-1.63-1.06-3.06-2.44-4.18-4.02"/>
                    <path class="cls-4" d="M25.91,102.11c-1.17-.62-2.06-1.73-2.42-3"/>
                  </g>
                </g>
              </g>
              <g>
                <path class="cls-24" d="M34.28,67.29c-1.41,3.21-4.45,5.64-7.89,6.32-4.03,.79-8.15-.75-11.79-2.66,1.71-.33,3.46-1.74,4.8-2.85,1.1-.91,2.01-2.04,3.21-2.8,.82-.52,1.75-.84,2.69-1.05,3.06-.66,6.85,.87,8.98,3.04Z"/>
                <g class="cls-22">
                  <g>
                    <path class="cls-5" d="M14.2,70.9c9.3,.39,15.74-1.87,20.46-3.87"/>
                    <path class="cls-4" d="M29.88,68.88c-2.1-1.21-3.88-2.98-5.08-5.09"/>
                    <path class="cls-4" d="M23.17,70.52c-.81-.27-1.53-.79-2.12-1.41-.59-.62-1.07-1.34-1.52-2.07"/>
                    <path class="cls-4" d="M26.06,69.96c-.61,1.85-.88,3.81-.77,5.75"/>
                    <path class="cls-4" d="M32.1,68.24c-.53,1.21-.53,2.64-.02,3.86"/>
                  </g>
                </g>
              </g>
              <g>
                <path class="cls-24" d="M101.46,33.52c4.12,.1,8.23-1.92,10.66-5.25,2.85-3.9,3.27-9.05,3.06-13.88-1.2,1.65-3.58,2.81-5.43,3.68-1.51,.71-3.18,1.12-4.59,2.02-.96,.61-1.77,1.44-2.46,2.34-2.23,2.92-2.49,7.72-1.24,11.07Z"/>
                <g class="cls-18">
                  <g>
                    <path class="cls-10" d="M115.33,13.94c-4.22,10.1-9.84,15.83-14.32,19.85"/>
                    <path class="cls-3" d="M105.35,29.63c-.23-2.84-1.24-5.62-2.88-7.95"/>
                    <path class="cls-3" d="M110.44,23.31c.12-1-.08-2.02-.44-2.96-.36-.94-.89-1.81-1.45-2.65"/>
                    <path class="cls-3" d="M108.41,26.1c2.27,.27,4.49,.97,6.51,2.05"/>
                    <path class="cls-3" d="M103.56,31.68c1.55,.05,3.08,.75,4.12,1.9"/>
                  </g>
                </g>
              </g>
            </g>
          </g>
        </g>
      </g>
    </g>
  </g>
</svg>