<?xml version="1.0" encoding="UTF-8"?>
<svg xmlns="http://www.w3.org/2000/svg" viewBox="0 0 189.35 145.49">
  <defs>
    <style>
      .cls-1 {
        isolation: isolate;
      }

      .cls-2 {
        fill: #ff78e2;
      }

      .cls-3 {
        mix-blend-mode: multiply;
      }
    </style>
  </defs>
  <g class="cls-1">
    <g id="Capa_2" data-name="Capa 2">
      <g id="OBJECTS">
        <g class="cls-3">
          <path class="cls-2" d="M189.33,91.16c-.7-16.48-11.14-32.34-26.44-38.82-8.19-3.47-17.14-3.51-25.81-4.76-4.28-.62-8.63-1.53-12.52-3.49-4.11-2.07-7.29-5.24-9.97-8.94s-5.06-7.81-7.92-11.49-5.84-6.73-9.27-9.57c-6.88-5.7-14.94-9.96-23.6-12.23-18.12-4.75-38.21-.23-52.65,11.68-7.17,5.92-12.05,13.75-12.83,23.13s1.96,18.62,2.97,27.88c.5,4.57,.64,9.25-.36,13.76-1.07,4.84-3.36,9.25-5.51,13.68-2.03,4.19-3.95,8.47-4.8,13.07-.79,4.25-.83,8.57-.17,12.85,1.3,8.49,5.64,16.52,12.58,21.68,6.59,4.9,15.25,6.96,23.32,5.4,4.35-.84,8.27-2.86,11.82-5.48,2.02-1.49,3.94-3.11,5.84-4.75s3.67-3.52,5.87-4.57c4.87-2.33,9.98-3.97,15.36-4.53s10.48-.27,15.65,.48c20.52,2.97,40.37,13.04,61.52,10.01,8.79-1.26,16.88-5.15,23.23-11.37,5.95-5.82,10.27-13.34,12.33-21.4,1.02-3.98,1.48-8.11,1.35-12.22-.06-1.93-3.06-1.93-3,0,.53,15.95-8.73,32-23.3,38.83-8.89,4.17-19.13,4.35-28.68,2.96-10.05-1.46-19.72-4.57-29.55-7.02s-20.08-4.38-30.23-3.19c-5.06,.59-9.85,1.98-14.5,4.07-1.09,.49-2.29,.93-3.23,1.67s-1.89,1.53-2.81,2.32c-1.82,1.55-3.61,3.13-5.47,4.63-3.47,2.81-7.24,5.25-11.61,6.35-3.79,.95-7.82,.95-11.63,.12-8.01-1.75-14.68-6.93-18.52-14.15s-4.82-16.13-2.79-24.11c2.3-9.05,8.48-16.64,10.1-25.93s-.53-18.03-1.91-26.9c-1.37-8.76-1.91-17.93,2.81-25.83s12.38-13.13,20.33-16.79S52.84,2.6,61.93,3.05c17.42,.85,33.88,10.35,43.92,24.52,5.14,7.26,9.3,15.35,17.69,19.36,7.73,3.7,16.46,3.92,24.81,4.95,4.15,.51,8.31,1.26,12.23,2.75,3.66,1.39,7.13,3.44,10.16,5.92,6.14,5,10.86,11.75,13.42,19.24,1.26,3.68,1.99,7.5,2.16,11.38,.08,1.92,3.08,1.93,3,0Z"/>
        </g>
      </g>
    </g>
  </g>
</svg>