<?xml version="1.0" encoding="UTF-8"?>
<svg xmlns="http://www.w3.org/2000/svg" viewBox="0 0 186.82 136.92">
  <defs>
    <style>
      .cls-1 {
        isolation: isolate;
      }

      .cls-2 {
        fill: #5139ff;
      }

      .cls-3 {
        mix-blend-mode: multiply;
      }
    </style>
  </defs>
  <g class="cls-1">
    <g id="Capa_2" data-name="Capa 2">
      <g id="OBJECTS">
        <g class="cls-3">
          <path class="cls-2" d="M182.59,49.4c-4.61,15.64-15.62,29.22-30.06,36.82-3.52,1.85-7.22,3.33-11.06,4.37-4.15,1.13-8.44,1.62-12.59,2.72s-8.12,2.85-11.1,5.98c-2.78,2.92-4.49,6.62-5.89,10.36s-2.57,7.84-4.42,11.52-4.69,7.05-8.29,9.34c-7.53,4.8-17.19,4.37-24.37-.92-6.79-5-9.77-13.51-13.38-20.78-3.91-7.88-9.5-15.6-18.36-18.18-9.41-2.75-19.96,0-28.67-5.22-7.47-4.48-11.36-12.72-11.39-21.27s3.42-16.68,9.48-22.62,14.44-9.56,22.9-10.65c9.97-1.28,20.08,.8,29.43,4.21,4.82,1.76,9.36,4.28,14.23,5.88,4.4,1.45,8.88,1.4,13.16-.43,8.33-3.57,13.35-11.54,18.56-18.52,2.63-3.52,5.51-7.06,9.15-9.58,.83-.57,1.68-1.13,2.53-1.69,7.99-5.25,17.79-8.48,27.4-7.7,16.74,1.35,30.7,16.38,33.47,32.5,.78,4.51,.85,9.5-.72,13.86-.65,1.82,2.24,2.6,2.89,.8,1.68-4.68,1.57-9.99,.82-14.85s-2.32-9.14-4.58-13.26c-4.3-7.86-11.19-14.84-19.33-18.69-11.69-5.54-24.93-3.83-36.24,1.77-2.25,1.12-4.35,2.42-6.43,3.81-3.73,2.5-6.81,5.44-9.6,8.96s-5.39,7.53-8.36,11.08-6.35,6.8-10.55,8.68c-4.51,2.02-9.03,1.38-13.5-.44-5-2.03-9.81-4.39-14.95-6.08s-10.17-2.83-15.43-3.38c-9.36-.98-18.91,.4-27.33,4.69-7.86,4-14.29,10.55-17.57,18.79s-3.38,17.35,.19,25.25c1.83,4.04,4.74,7.52,8.3,10.15,3.99,2.95,8.62,4.38,13.51,4.93,5.14,.57,10.39,.18,15.47,1.3,2.6,.57,4.94,1.38,7.18,2.83,2.02,1.3,3.86,2.85,5.46,4.65,5.76,6.45,8.19,15.11,12.56,22.44,2.21,3.7,4.94,7.08,8.49,9.58,3.78,2.67,8.33,4.21,12.94,4.47,8.88,.49,17.45-4.37,22.16-11.81,2.31-3.64,3.65-7.81,5.07-11.85,1.33-3.79,2.72-7.75,5.31-10.89,5.86-7.12,16.06-6.75,24.21-9.13,16.08-4.72,29.75-16.58,37.49-31.36,1.94-3.71,3.52-7.62,4.71-11.64,.55-1.86-2.35-2.65-2.89-.8h0Z"/>
        </g>
      </g>
    </g>
  </g>
</svg>