<?xml version="1.0" encoding="UTF-8"?>
<svg xmlns="http://www.w3.org/2000/svg" viewBox="0 0 191.5 138.14">
  <defs>
    <style>
      .cls-1 {
        fill: #3b82f6;
      }

      .cls-2 {
        isolation: isolate;
      }

      .cls-3 {
        mix-blend-mode: multiply;
      }
    </style>
  </defs>
  <g class="cls-2">
    <g id="Capa_2" data-name="Capa 2">
      <g id="OBJECTS">
        <g class="cls-3">
          <path class="cls-1" d="M184.01,15.35c-9.74-10.93-25.39-13.43-39.18-10.77-7.88,1.52-15.26,4.61-22.45,8.07-3.48,1.67-7.16,3.41-11.07,3.65s-7.65-1.24-11.13-2.97c-7.07-3.52-14.06-6.95-21.62-9.32S63.25,.2,55.39,.02C41.16-.31,26.59,3.82,15.51,12.94c-5.15,4.24-9.7,9.61-12.46,15.72S-.54,41.09,.31,47.55c.23,1.72,.56,3.42,.99,5.11,.4,1.57,2.38,1.27,2.89,0h0c-.96,0-1.93,0-2.89,0,1.81,10.27,7.98,19.46,16.87,24.93,8.32,5.12,18.15,6.87,27.67,8.26s19.58,2.37,28.57,6.27c4.64,2.02,8.77,4.86,12.3,8.48,3.8,3.89,6.88,8.38,9.94,12.85,5.9,8.62,12.29,17.66,22.07,22.19,4.75,2.2,9.92,3.05,15.1,2.15s10.12-3.56,14.03-7.13c8.35-7.62,11.41-18.87,12.19-29.78,.4-5.57,.4-11.22,1.58-16.7,1.15-5.31,3.56-9.84,7.39-13.69,3.6-3.62,7.8-6.56,11.54-10.01s6.56-7.18,8.45-11.74c3.62-8.75,3.31-19.1-1.01-27.55-1.08-2.11-2.43-4.05-3.98-5.84-1.27-1.46-3.38,.67-2.12,2.12,6,6.92,7.88,16.78,5.8,25.59-1.04,4.42-3.06,8.6-6.05,12.04-3.28,3.76-7.33,6.72-11.11,9.94s-7.25,6.75-9.4,11.22c-2.3,4.8-3.1,10.08-3.52,15.34s-.42,10.96-1.4,16.36-2.68,10.2-5.52,14.64c-5.6,8.77-16.07,14.63-26.54,11.85-9.93-2.63-16.97-11.08-22.6-19.15s-11.38-17.39-20.26-22.96c-8.02-5.03-17.5-6.88-26.72-8.26s-18.96-2.31-27.88-5.68-16.79-10.18-20.49-19.41c-.93-2.31-1.59-4.71-2.02-7.15-.29-1.63-2.41-1.2-2.89,0h0c.96,0,1.93,0,2.89,0-1.55-6.12-1.69-12.49,.25-18.54s5.87-11.41,10.47-15.83C24.87,7.93,38.77,3.29,52.41,3.01c15.33-.31,30.2,4.62,43.68,11.6,3.28,1.7,6.63,3.48,10.27,4.27s7.18,.42,10.64-.72,6.91-2.99,10.33-4.56,7.23-3.1,10.98-4.27c13.16-4.1,28.88-4.38,40.09,4.8,1.25,1.02,2.41,2.15,3.48,3.35,1.29,1.44,3.4-.68,2.12-2.12Z"/>
        </g>
      </g>
    </g>
  </g>
</svg>