<?xml version="1.0" encoding="UTF-8"?>
<svg xmlns="http://www.w3.org/2000/svg" viewBox="0 0 179.75 164.55">
  <defs>
    <style>
      .cls-1 {
        fill: #8af9e6;
      }

      .cls-2 {
        isolation: isolate;
      }

      .cls-3 {
        mix-blend-mode: multiply;
      }
    </style>
  </defs>
  <g class="cls-2">
    <g id="Capa_2" data-name="Capa 2">
      <g id="OBJECTS">
        <g class="cls-3">
          <g class="cls-3">
            <path class="cls-1" d="M7.47,74.56c-5.81,5.02-9.05,13.79-6.7,21.28,2.57,8.21,10.97,11.31,18.9,11.45,9.8,.16,20-4.32,29.48-.03,8.25,3.74,13.52,11.69,17.64,19.41,4.57,8.56,8.5,17.53,15.54,24.43,6.39,6.26,14.58,10.75,23.33,12.64,7.7,1.66,17.33,1.22,22.69-5.39,2.85-3.52,3.86-7.97,5.89-11.93,1.8-3.5,4.6-5.97,8.11-7.69,7.02-3.42,15.07-3.97,22.19-7.2,7.76-3.52,13.84-10.83,15-19.37,.6-4.42-.09-8.96-2.02-12.98s-5.07-6.94-8.67-9.37c-3.52-2.38-7.41-4.26-10.74-6.94s-5.73-6.27-7-10.44c-2.58-8.44-1.31-17.35-2.04-26.01-.68-8.14-3.01-16.66-10.05-21.58s-16.66-4.3-25.02-4.78c-4.6-.26-9.05-1-13.31-2.83-4.57-1.96-8.74-4.71-12.96-7.31C79.45,4.82,70.36,.15,60.41,0c-9.14-.14-18.43,4.14-22.42,12.7-1.81,3.89-2.46,8.07-2.98,12.29-.6,4.81-1.66,9.57-3.15,14.18-2.95,9.17-7.73,17.56-13.94,24.91-3.19,3.77-6.69,7.27-10.45,10.47-1.47,1.25,.66,3.37,2.12,2.12,7.21-6.14,13.64-13.42,18.44-21.61s7.85-16.93,9.4-26.07c.71-4.17,.94-8.42,2.26-12.46s3.76-7.48,7.28-9.83c8-5.35,18.2-4.21,26.71-.81,8.99,3.59,16.46,9.95,25.28,13.83,4.15,1.82,8.41,2.8,12.91,3.18,4.19,.36,8.4,.3,12.59,.62s8.11,.99,11.64,3.01,5.94,5.08,7.48,8.71c3.23,7.59,2.6,16.03,2.8,24.08s1.32,17.36,7.4,23.66c5.69,5.9,14.63,8.05,19.46,14.84s4.39,16.72-.72,23.59c-2.45,3.29-5.78,5.82-9.5,7.51-3.46,1.57-7.21,2.47-10.87,3.43-7.07,1.84-14.61,3.93-19.09,10.19-2.5,3.5-3.42,7.8-5.47,11.54s-5.15,5.87-9.11,6.85c-7.92,1.97-16.8-.67-23.78-4.43-8.04-4.33-14.13-10.85-18.66-18.71s-8.07-16.77-14.03-23.98c-2.63-3.19-5.75-6.06-9.35-8.11-4.03-2.3-8.52-3.33-13.15-3.3-9,.06-18.05,3.58-26.96,.85-3.57-1.09-6.68-3.27-8.31-6.7s-1.5-7.26-.49-10.74,3.05-6.72,5.84-9.13c1.46-1.26-.67-3.38-2.12-2.12Z"/>
          </g>
        </g>
      </g>
    </g>
  </g>
</svg>