<?xml version="1.0" encoding="UTF-8"?>
<svg xmlns="http://www.w3.org/2000/svg" viewBox="0 0 200.71 159.25">
  <defs>
    <style>
      .cls-1 {
        fill: #d9f99d;
      }

      .cls-2 {
        isolation: isolate;
      }

      .cls-3 {
        mix-blend-mode: multiply;
      }
    </style>
  </defs>
  <g class="cls-2">
    <g id="Capa_2" data-name="Capa 2">
      <g id="OBJECTS">
        <g>
          <path class="cls-1" d="M168.62,60.08c2.64-11.15,7.77-22.62,4.63-34.23-2.44-9.02-9.33-16.25-17.42-20.61-20.91-11.3-44.94-2.18-64.76,7.02-10.82,5.02-21.58,10.4-33.2,13.36-11.06,2.82-23.06,3-33.24,8.64-4.2,2.32-8.01,5.51-10.69,9.52s-3.85,9.1-3.37,14.1c.53,5.58,2.53,11.04,2.3,16.69s-3.51,9.64-6.58,13.88c-2.62,3.61-4.79,7.37-5.7,11.78-.82,3.96-.76,8.03,.03,11.98,1.57,7.88,6.14,15.21,12.7,19.87,14.83,10.52,33.01,1.85,47.08-5.47,7.56-3.94,15.18-8.17,23.52-10.21,3.86-.94,7.86-1.34,11.82-.85,4.51,.55,8.74,2.31,12.52,4.79,8.19,5.37,14.16,13.45,20.97,20.34,7.41,7.49,16.37,13.81,26.56,16.83,9.45,2.8,19.52,2.3,28.37-2.19,8.21-4.16,14.76-11.71,16.2-20.97,1.76-11.29-3.45-22.16-9.72-31.22s-14.29-17.12-19.59-26.98c-1.24-2.32-2.32-4.72-3.13-7.22-.89-2.75,.06-6.11,.69-8.87,.43-1.88-2.46-2.68-2.89-.8-.32,1.4-.59,2.81-.79,4.23s-.61,3.2-.37,4.67c.4,2.46,1.71,5.05,2.78,7.28,2.31,4.84,5.37,9.28,8.61,13.53,6.64,8.75,14.2,16.92,18.65,27.1,4.04,9.26,4.63,20.02-1.75,28.37-5.31,6.96-14.09,11.15-22.75,11.77-10.14,.72-20.06-3.2-28.3-8.85s-14.44-13.34-21.33-20.45c-6.36-6.57-13.8-12.64-23.09-14.15-8.01-1.3-15.93,.71-23.3,3.8-7.84,3.29-15.17,7.64-22.84,11.29-7.17,3.42-14.94,6.38-23.01,6.06-7.82-.31-14.8-4.12-19.41-10.44s-6.79-14.06-5.51-21.58c.72-4.25,2.61-7.83,5.1-11.31,2.91-4.07,6.22-8.09,7.14-13.15,1.86-10.25-5.34-20.67-.02-30.5,4.89-9.03,15.14-12.87,24.62-14.85,5.71-1.19,11.51-1.92,17.19-3.27s11.12-3.28,16.48-5.49C94.89,14.65,116.16,.61,139.98,3.31c8.96,1.02,17.74,5.2,23.88,11.85,2.97,3.22,5.27,7.08,6.45,11.32,1.48,5.34,.98,10.92-.19,16.27-1.22,5.57-3.08,10.98-4.4,16.53-.44,1.88,2.45,2.68,2.89,.8Z"/>
        </g>
      </g>
    </g>
  </g>
</svg>