<?xml version="1.0" encoding="UTF-8"?>
<svg xmlns="http://www.w3.org/2000/svg" viewBox="0 0 163.83 146.48">
  <defs>
    <style>
      .cls-1 {
        isolation: isolate;
      }

      .cls-2 {
        fill: #ce64ff;
      }

      .cls-3 {
        mix-blend-mode: multiply;
      }
    </style>
  </defs>
  <g class="cls-1">
    <g id="Capa_2" data-name="Capa 2">
      <g id="OBJECTS">
        <g class="cls-3">
          <path class="cls-2" d="M130.45,3.8C121.8,.1,112.2-.62,102.92,.45c-8.7,1-17.38,3.62-24.63,8.67-3.7,2.58-6.82,5.79-10,8.97s-6.63,6.19-10.72,8.37c-7.63,4.09-16.43,6.33-22.64,12.69-2.93,3.01-4.8,6.7-5.61,10.82-.86,4.38-.73,8.86-1.43,13.26-.6,3.76-1.97,7.14-4.25,10.19-2.04,2.73-4.59,5.06-7.14,7.3-5.11,4.5-10.81,8.85-13.97,15.04-4.03,7.87-2.82,17.28,.73,25.09,3.35,7.36,9.15,13.63,16.24,17.52,7.74,4.25,16.82,5.73,25.52,4.36,8.23-1.29,15.75-5.2,23.22-8.68s15.01-6.68,23.22-6.33c9.44,.41,17.78,5.61,25.75,10.15,7.63,4.34,15.83,8.62,24.83,8.59,7.71-.02,15.59-3.29,19.34-10.36s2.78-15.29,.29-22.4c-2.88-8.23-8.24-15.25-12.13-22.99-2.04-4.06-3.64-8.38-4.19-12.91-.6-4.94-.18-9.96,.57-14.87s1.84-9.85,2.57-14.81c.35-2.41,.62-4.83,.74-7.26s.38-4.98,.42-7.48c.12-8.84-2.84-17.11-9.38-23.19-2.88-2.68-6.22-4.83-9.82-6.41-1.75-.77-3.28,1.81-1.51,2.59,6.97,3.07,13.24,8.45,15.95,15.74,1.64,4.42,1.96,9.15,1.66,13.82s-.59,9.49-1.4,14.2c-1.61,9.41-4,18.94-2.68,28.54,1.19,8.67,5.78,16.15,10.14,23.55,4.02,6.81,7.81,13.94,8.19,22.01,.17,3.54-.32,7.19-2,10.36s-4.57,5.76-7.97,7.2c-7.49,3.17-15.89,1.44-23.05-1.77-8.17-3.68-15.48-9.01-23.8-12.38-4.11-1.67-8.45-2.79-12.9-2.93-3.82-.11-7.66,.51-11.32,1.56-7.69,2.21-14.72,6.17-22.03,9.34s-15.46,5.38-23.76,4.34c-8.21-1.03-15.92-4.87-21.6-10.89s-9.14-13.67-9.36-21.71c-.11-4.12,.82-8.1,2.98-11.62,1.68-2.75,3.93-5.1,6.28-7.29,4.86-4.53,10.35-8.46,14.26-13.91,2.13-2.96,3.52-6.31,4.17-9.9,.75-4.18,.67-8.45,1.32-12.65s2.2-7.86,5.19-10.87c2.83-2.85,6.37-4.89,9.98-6.6,3.95-1.88,8.06-3.42,11.92-5.49s7.15-4.74,10.25-7.78,6.08-6.35,9.61-8.96,7.25-4.5,11.25-5.94c8.16-2.92,17.13-3.92,25.75-3.14,4.44,.4,8.87,1.4,12.98,3.15,1.76,.75,3.29-1.83,1.51-2.59Z"/>
        </g>
      </g>
    </g>
  </g>
</svg>