<?xml version="1.0" encoding="UTF-8"?>
<svg id="Capa_2" data-name="Capa 2" xmlns="http://www.w3.org/2000/svg" viewBox="0 0 188.92 121.16">
  <defs>
    <style>
      .cls-1 {
        fill: #99f6e4;
      }
    </style>
  </defs>
  <g id="OBJECTS">
    <path class="cls-1" d="M182.33,26.39c-5.24-6.34-12.89-10.36-20.92-11.82-4.08-.74-8.26-.91-12.38-.42-4.67,.56-9.12,2.02-13.62,3.3s-9.32,2.54-13.98,1.56-7.98-4.13-11.25-7.32c-3.08-3.01-6.24-5.81-10.09-7.79s-7.91-3.15-12.15-3.65-8.54-.21-12.65,.85c-4.44,1.15-8.44,3.33-12.25,5.83-4,2.63-7.85,5.54-12.21,7.56-3.78,1.75-7.91,2.67-11.99,3.38-8.05,1.39-16.42,1.8-24,5.1S2.19,32.21,.55,40.04s.19,15.6,5.42,21.35,13.69,8.94,18.22,15.71c5.19,7.75,2.93,17.72,5.27,26.32,1.06,3.89,2.93,7.87,6.06,10.53s6.38,5.05,10.37,6.26,8.22,1.31,12.13,.1,7.36-3.9,10.31-6.83,5.67-6.29,8.96-8.96c2.83-2.29,6.14-3.78,9.7-4.52,7.16-1.48,14.67-.03,21.74,1.25s14.72,2.92,22.12,2.13c3.53-.38,6.97-1.3,10.1-3.01,3.53-1.92,6.38-4.77,8.84-7.91s4.65-6.68,7.08-9.95c2.62-3.52,5.65-6.46,9.41-8.75s7.95-4.14,11.62-6.72c3.28-2.31,6.04-5.19,7.92-8.75,3.54-6.74,3.97-14.92,1.73-22.14-1.11-3.57-2.87-6.85-5.21-9.77-1.21-1.5-3.32,.63-2.12,2.12,4.53,5.63,6.47,13.31,5.48,20.44-.49,3.55-1.73,6.99-3.74,9.97-2.26,3.35-5.54,5.7-9,7.7-3.82,2.2-7.86,4.04-11.38,6.72-3.24,2.46-5.81,5.57-8.16,8.86-4.4,6.15-8.3,13.15-15.53,16.36-6.32,2.8-13.61,2.23-20.27,1.21-7.16-1.09-14.25-2.84-21.5-3.26s-14.27,.79-20.05,5.2c-3.23,2.46-5.87,5.53-8.66,8.44s-5.72,5.7-9.48,7.05-7.82,1.24-11.58,.02c-1.92-.62-3.72-1.54-5.36-2.72-.74-.53-1.37-1.19-2.09-1.75-.78-.61-1.56-1.14-2.26-1.87-6.06-6.36-5.06-15.98-6.1-24-.55-4.26-1.67-8.5-4.26-12.01-2.33-3.17-5.41-5.59-8.58-7.87s-6.41-4.4-9.1-7.2-4.28-5.92-5.09-9.53c-1.56-6.95,.34-14.83,5.46-19.9,5.62-5.58,13.81-7.11,21.34-8.23,8.03-1.19,16.25-2.02,23.57-5.83,7.97-4.14,14.47-10.71,23.5-12.64,7.97-1.7,16.6-.19,23.51,4.12s11.74,12.92,20.78,14.28,17.86-3.62,26.86-4.87c7.78-1.08,16.04,.23,22.93,4.04,3.36,1.86,6.32,4.3,8.76,7.26,1.23,1.49,3.34-.64,2.12-2.12Z"/>
  </g>
</svg>