<?xml version="1.0" encoding="UTF-8"?>
<svg xmlns="http://www.w3.org/2000/svg" viewBox="0 0 167.39 130.84">
  <defs>
    <style>
      .cls-1 {
        fill: #9883ff;
      }

      .cls-2 {
        isolation: isolate;
      }

      .cls-3 {
        mix-blend-mode: multiply;
      }
    </style>
  </defs>
  <g class="cls-2">
    <g id="Capa_2" data-name="Capa 2">
      <g id="OBJECTS">
        <g class="cls-3">
          <path class="cls-1" d="M90.17,116.52c4.1,2.31,8.2,4.47,12.77,5.68,4.04,1.07,8.25,1.52,12.42,1.41,8.67-.22,17.16-2.7,24.93-6.47,3.9-1.9,7.64-4.15,11.15-6.7s6.93-5.36,9.73-8.71c5.34-6.38,8.32-15.29,4.5-23.2-3.6-7.47-12.07-8.65-18.89-11.7-3.52-1.57-6.46-3.83-8.11-7.41s-1.87-7.86-1.88-11.82,.27-8.23-.06-12.33-1.11-8.21-2.45-12.12c-2.62-7.62-7.37-14.77-14.33-19.05-6.2-3.81-14.01-5.04-21.09-3.39s-12.64,6.41-15.62,13.06-3.73,13.89-7.11,20.22c-1.69,3.16-4.1,5.77-7.41,7.25-4.3,1.93-9.23,2.05-13.85,2.58-8.88,1.01-18.36,2.73-24.98,9.26-2.91,2.87-5.24,6.58-6.01,10.64-.38,2-.39,3.99-.04,6,.4,2.31,1.32,4.56,1.41,6.92,.2,4.8-4.73,5.79-8.25,7.36s-7.14,3.91-10.01,6.74c-5.69,5.6-8.56,13.63-6.1,21.43s8.52,13.33,15.58,16.33c8.51,3.62,18.24,2.64,26.81-.25,4.58-1.54,8.98-3.62,13.2-5.98,1.36-.76,2.63-1.63,3.98-2.42,5.21-3.04,11.22-4.92,17.26-5.18,4.38-.18,8.68,.52,12.81,2,1.82,.65,2.61-2.25,.8-2.89-11.57-4.14-24.2-1.83-34.36,4.74-3.26,2.11-6.92,3.86-10.5,5.34-4.36,1.81-8.97,3.22-13.68,3.74-8.2,.9-16.36-.97-22.57-6.6-5.48-4.97-8.78-12.36-6.49-19.7,2.3-7.38,9.2-12.53,16.12-15.28,3.69-1.46,7.64-3.19,8.29-7.6s-1.83-8.23-1.56-12.49c.56-8.5,8.4-14.36,15.88-16.73,4.37-1.39,8.93-2.01,13.48-2.51s8.98-.73,13.15-2.39c6.95-2.76,10.29-9.05,12.45-15.83,2.02-6.34,3.2-13.62,7.69-18.8s11.63-7.18,18.36-6.56c16.2,1.47,25.02,17.57,26.14,32.36,.59,7.76-1.1,15.97,1.52,23.48,1.25,3.59,3.5,6.58,6.67,8.68s6.67,3.13,10.11,4.36,6.82,2.6,9.25,5.32c2.6,2.91,3.38,7.01,3.01,10.8-.82,8.4-7.64,14.78-14.05,19.5-13.05,9.6-30.51,16.02-46.69,11.64-4.26-1.15-8.04-3.18-11.87-5.33-1.68-.95-3.2,1.64-1.51,2.59Z"/>
        </g>
      </g>
    </g>
  </g>
</svg>